<svg width="58" height="58" viewBox="0 0 58 58" fill="none" xmlns="http://www.w3.org/2000/svg">
<path d="M53.1667 42.5503C51.2672 48.0603 45.5808 57.8163 39.7228 57.9227C35.8368 57.9976 34.5874 55.6196 30.1455 55.6196C25.7061 55.6196 24.3165 57.8502 20.6432 57.9952C14.4275 58.2344 4.83337 43.9133 4.83337 31.4239C4.83337 19.952 12.8277 14.2656 19.8119 14.1617C23.5577 14.094 27.0957 16.6871 29.3795 16.6871C31.6729 16.6871 35.9697 13.5696 40.4865 14.0263C42.3763 14.1061 47.6857 14.7876 51.0932 19.7708C42.0525 25.6723 43.4614 38.0142 53.1667 42.5503ZM40.5469 0C33.7174 0.2755 28.1445 7.44092 28.9227 13.3666C35.235 13.8572 41.2912 6.78117 40.5469 0Z" fill="#565656"/>
</svg>
