<svg width="46" height="46" viewBox="0 0 46 46" fill="none" xmlns="http://www.w3.org/2000/svg">
<path d="M11.5 3.83334L13.7444 4.22242C13.064 8.52534 15.2605 9.0505 18.9175 9.73092C21.7312 10.2542 24.9167 10.9231 24.9167 16.0253V17.25H22.6493V16.0253C22.6493 13.0429 21.7292 12.558 18.5016 11.9581C13.5508 11.0381 10.6509 9.292 11.5 3.83334V3.83334ZM46 30.6667C46 37.0147 41.0032 42.1667 34.8354 42.1667C31.9393 42.1667 29.3039 41.0263 27.3202 39.1671C24.8074 36.8115 21.0373 36.9974 18.5993 39.2399C16.6252 41.0569 14.0204 42.1667 11.1646 42.1667C4.99867 42.1667 0 37.0147 0 30.6667C0 24.3187 4.99867 19.1667 11.1646 19.1667L35.2437 19.1801C41.2198 19.4024 46 24.4605 46 30.6667ZM17.25 28.75H13.4167V24.9167H9.58333V28.75H5.75V32.5833H9.58333V36.4167H13.4167V32.5833H17.25V28.75ZM24.9167 30.6667H21.0833V32.5833H24.9167V30.6667ZM32.5833 26.8333C32.5833 27.8913 33.4401 28.75 34.5 28.75C35.5599 28.75 36.4167 27.8913 36.4167 26.8333C36.4167 25.7753 35.5599 24.9167 34.5 24.9167C33.4401 24.9167 32.5833 25.7753 32.5833 26.8333ZM32.5833 30.6667C32.5833 29.6087 31.7266 28.75 30.6667 28.75C29.6067 28.75 28.75 29.6087 28.75 30.6667C28.75 31.7247 29.6067 32.5833 30.6667 32.5833C31.7266 32.5833 32.5833 31.7247 32.5833 30.6667ZM36.4167 34.5C36.4167 33.442 35.5599 32.5833 34.5 32.5833C33.4401 32.5833 32.5833 33.442 32.5833 34.5C32.5833 35.558 33.4401 36.4167 34.5 36.4167C35.5599 36.4167 36.4167 35.558 36.4167 34.5ZM40.25 30.6667C40.25 29.6087 39.3932 28.75 38.3333 28.75C37.2734 28.75 36.4167 29.6087 36.4167 30.6667C36.4167 31.7247 37.2734 32.5833 38.3333 32.5833C39.3932 32.5833 40.25 31.7247 40.25 30.6667Z" fill="#606161"/>
</svg>
