<svg width="58" height="45" viewBox="0 0 58 45" fill="none" xmlns="http://www.w3.org/2000/svg">
<path fill-rule="evenodd" clip-rule="evenodd" d="M57.4842 34.4413C56.3512 35.8782 53.5755 36.9032 53.5755 36.9032L32.9266 44.359V38.8605L48.1228 33.4176C49.8472 32.7965 50.112 31.9185 48.7103 31.4576C47.3112 30.9954 44.7779 31.1279 43.0521 31.7516L32.9266 35.3365V29.6301L33.5102 29.4314C33.5102 29.4314 36.4361 28.3905 40.5504 27.9323C44.6646 27.4768 49.7023 27.9946 53.6572 29.5016C58.1139 30.9173 58.6158 33.0044 57.4842 34.4413ZM34.8921 25.0784V11.0169C34.8921 9.36551 34.5891 7.8452 33.0478 7.4148C31.8674 7.03473 31.1349 8.13655 31.1349 9.78664V45L21.6878 41.9859V0C25.7046 0.74956 31.5565 2.52148 34.7024 3.58755C42.703 6.34873 45.4155 9.78532 45.4155 17.5285C45.4155 25.0758 40.7809 27.9363 34.8921 25.0784ZM4.35352 38.2858C-0.221808 36.9906 -0.983265 34.2916 1.10218 32.7369C3.02953 31.3014 6.30722 30.2207 6.30722 30.2207L19.8527 25.379V30.8988L10.1053 34.4055C8.38344 35.0266 8.11864 35.906 9.51772 36.3668C10.9181 36.8277 13.4528 36.6966 15.1773 36.0742L19.8527 34.3685V39.3068C19.5563 39.3598 19.2256 39.4127 18.92 39.4644C14.2432 40.2325 9.26214 39.912 4.35352 38.2858ZM54.4753 40.4722C55.0668 40.4722 55.6214 40.7026 56.039 41.1277C56.4566 41.5462 56.6872 42.1051 56.6872 42.6984C56.6872 43.2943 56.4566 43.8505 56.039 44.269C55.6214 44.6914 55.0668 44.9219 54.4753 44.9219C53.8837 44.9219 53.3304 44.6914 52.9115 44.269C52.4939 43.8505 52.2647 43.2943 52.2647 42.6984C52.2647 41.472 53.2553 40.4722 54.4753 40.4722ZM52.6362 42.6984C52.6362 43.1923 52.8272 43.6572 53.175 44.0041C53.5215 44.3564 53.9852 44.5471 54.4753 44.5471C55.491 44.5471 56.3143 43.7181 56.3143 42.6984C56.3143 42.2031 56.1246 41.7382 55.7755 41.3899C55.4291 41.0377 54.9653 40.8483 54.4753 40.8483C53.9852 40.8483 53.5215 41.0377 53.175 41.3899C52.8272 41.7382 52.6362 42.2031 52.6362 42.6984ZM55.1432 41.4999C55.3856 41.6071 55.5081 41.8137 55.5081 42.1077C55.5081 42.2587 55.4765 42.3858 55.4119 42.4851C55.3658 42.5567 55.2999 42.6149 55.2262 42.6652C55.2841 42.6997 55.3355 42.7407 55.3737 42.7884C55.4264 42.8573 55.4567 42.9672 55.4607 43.1168L55.4725 43.4333C55.4765 43.5181 55.4818 43.583 55.4949 43.6227C55.5081 43.681 55.5331 43.7181 55.5648 43.73L55.5977 43.7459V43.7817V43.8359V43.8902H55.5437H55.1524H55.1208L55.105 43.8624C55.0918 43.836 55.0826 43.8055 55.0734 43.7658C55.0668 43.73 55.0602 43.6678 55.0562 43.5724L55.0365 43.1791C55.0312 43.0427 54.9851 42.9579 54.8981 42.9129C54.8441 42.8878 54.7545 42.8758 54.6333 42.8758H53.9628V43.836V43.8903H53.9074H53.5886H53.5346V43.836V41.4694V41.4151H53.5886H54.6781C54.8652 41.4151 55.022 41.4429 55.1432 41.4999L55.1432 41.4999ZM53.9628 42.4971H54.6452C54.7822 42.4971 54.8916 42.4719 54.9693 42.4202C55.0404 42.3686 55.0747 42.2746 55.0747 42.1382C55.0747 41.9898 55.0259 41.8932 54.9232 41.8415C54.8665 41.8137 54.7875 41.7978 54.6874 41.7978H53.9628V42.4971Z" fill="#565656"/>
</svg>
