<svg width="42" height="42" viewBox="0 0 42 42" fill="none" xmlns="http://www.w3.org/2000/svg">
<g clip-path="url(#clip0)">
<path d="M18.9058 41.9136C15.6706 41.604 12.3952 40.4427 9.58142 38.6079C7.22359 37.0704 6.69114 36.4384 6.69114 35.1771C6.69114 32.6434 9.47843 28.2059 14.2473 23.147C16.9557 20.274 20.7284 16.9063 21.1364 16.9975C21.9294 17.1748 28.2705 23.3566 30.6443 26.2667C34.3981 30.8685 36.1238 34.6364 35.2471 36.3162C34.5806 37.5932 30.4453 40.0889 27.4072 41.0477C24.9033 41.838 21.6148 42.1729 18.9058 41.9136ZM3.50662 32.5428C1.54731 29.5386 0.557403 26.581 0.0794698 22.3034C-0.0783448 20.8909 -0.0217923 20.0829 0.437826 17.1837C1.01067 13.5703 3.06959 9.39002 5.54358 6.81739C6.59726 5.72169 6.69137 5.69499 7.97575 6.12743C9.53547 6.65257 11.2011 7.8023 13.7843 10.1368L15.2915 11.4989L14.4685 12.5095C10.648 17.2005 6.61484 23.8498 5.09488 27.9635C4.26857 30.1999 3.93529 32.4448 4.29083 33.3794C4.53087 34.0105 4.31039 33.7752 3.50662 32.5428ZM37.8985 33.0538C38.0921 32.1094 37.8473 30.375 37.2735 28.6258C36.0309 24.8374 31.8776 17.7897 28.0637 12.998L26.8632 11.4896L28.162 10.2975C29.858 8.74113 31.0355 7.80917 32.306 7.01773C33.3086 6.39319 34.7413 5.84032 35.3572 5.84032C35.7369 5.84032 37.0736 7.22675 38.1526 8.73979C39.8239 11.0832 41.0534 13.9239 41.6763 16.8811C42.0788 18.7918 42.1123 22.8818 41.7411 24.7879C41.4365 26.3521 40.7933 28.3811 40.1659 29.7572C39.6957 30.7883 38.5264 32.7908 38.014 33.4424C37.7506 33.7774 37.7503 33.7767 37.8985 33.0538H37.8985ZM19.2522 5.12495C17.4925 4.23183 14.7778 3.27312 13.2782 3.01519C12.7525 2.92476 11.8557 2.87433 11.2853 2.90312C10.0481 2.96557 10.1033 2.9009 12.0882 1.96367C13.7383 1.18447 15.1148 0.726271 16.9834 0.334139C19.0854 -0.106982 23.0364 -0.112159 25.1049 0.323497C27.3391 0.794043 29.97 1.77253 31.4524 2.68432L31.893 2.95532L30.8821 2.9043C28.8733 2.80291 25.9457 3.61403 22.8026 5.14282C21.8545 5.60395 21.0297 5.97223 20.9697 5.96124C20.9097 5.95024 20.1368 5.57391 19.2522 5.12495V5.12495Z" fill="#565656"/>
</g>
<defs>
<clipPath id="clip0">
<rect width="42" height="42" fill="white"/>
</clipPath>
</defs>
</svg>
